<svg xmlns="http://www.w3.org/2000/svg" width="21" height="20" fill="none"><path fill="#fff" d="M17.457 3.704c2.258 3.302 3.374 7.026 2.957 11.314a.064.064 0 0 1-.026.046 16.57 16.57 0 0 1-5.002 2.51.065.065 0 0 1-.07-.025 13.255 13.255 0 0 1-1.021-1.65.063.063 0 0 1 .034-.089 10.26 10.26 0 0 0 1.56-.738.064.064 0 0 0 .006-.106 7.823 7.823 0 0 1-.31-.242.061.061 0 0 0-.066-.008c-3.235 1.485-6.778 1.485-10.051 0a.062.062 0 0 0-.065.009 8.46 8.46 0 0 1-.31.241.063.063 0 0 0 .007.106c.498.284 1.016.534 1.56.739a.063.063 0 0 1 .034.088c-.294.578-.637 1.129-1.021 1.651a.065.065 0 0 1-.07.023 16.624 16.624 0 0 1-4.994-2.51.067.067 0 0 1-.026-.046C.234 11.31.944 7.553 3.537 3.703a.058.058 0 0 1 .027-.023 16.526 16.526 0 0 1 4.07-1.255.065.065 0 0 1 .066.031c.177.31.379.71.515 1.035a15.321 15.321 0 0 1 4.572 0c.137-.319.332-.724.507-1.035a.062.062 0 0 1 .066-.03c1.43.245 2.796.673 4.07 1.254a.05.05 0 0 1 .027.024ZM8.98 10.756c.015-1.097-.789-2.004-1.798-2.004-1 0-1.797.9-1.797 2.004s.812 2.003 1.797 2.003c1.001 0 1.798-.9 1.798-2.003Zm6.645 0c.016-1.097-.788-2.004-1.797-2.004-1.001 0-1.798.9-1.798 2.004s.812 2.003 1.798 2.003c1.009 0 1.797-.9 1.797-2.003Z"/></svg>