<svg width="21" height="20" viewBox="0 0 21 20" fill="none" xmlns="http://www.w3.org/2000/svg">
<g clip-path="url(#clip0_785_1925)">
<path d="M20.4921 3.9407C19.764 4.26396 18.98 4.47947 18.16 4.57925C19 4.07639 19.64 3.28219 19.944 2.34034C19.16 2.79929 18.292 3.13852 17.368 3.31811C16.628 2.5319 15.572 2.04102 14.404 2.04102C12.16 2.04102 10.344 3.8529 10.344 6.09181C10.344 6.41108 10.38 6.71839 10.448 7.01372C7.07604 6.8461 4.08404 5.23376 2.08004 2.78333C1.73204 3.38197 1.53204 4.07639 1.53204 4.8187C1.53204 6.22351 2.24804 7.46469 3.33604 8.19104C2.67204 8.17108 2.04404 7.9875 1.49604 7.68419C1.49604 7.70015 1.49604 7.71612 1.49604 7.73607C1.49604 9.69961 2.89604 11.3359 4.75204 11.707C4.41204 11.7988 4.05204 11.8507 3.68404 11.8507C3.42404 11.8507 3.16804 11.8268 2.92004 11.7789C3.43604 13.3872 4.93604 14.5606 6.71204 14.5925C5.32404 15.678 3.57204 16.3246 1.67204 16.3246C1.34404 16.3246 1.02004 16.3046 0.704041 16.2687C2.50004 17.4181 4.63604 18.0885 6.92804 18.0885C14.396 18.0885 18.48 11.9186 18.48 6.56274C18.48 6.38714 18.476 6.21154 18.468 6.03993C19.26 5.46523 19.948 4.75086 20.4921 3.9407Z" fill="white"/>
</g>
<defs>
<clipPath id="clip0_785_1925">
<rect width="20" height="20" fill="white" transform="translate(0.5)"/>
</clipPath>
</defs>
</svg>
